<svg xmlns="http://www.w3.org/2000/svg" xmlns:xlink="http://www.w3.org/1999/xlink" viewBox="0,0,256,256" width="23px" height="23px" fill-rule="nonzero"><g fill="#a3a3a3" fill-rule="nonzero" stroke="none" stroke-width="1" stroke-linecap="butt" stroke-linejoin="miter" stroke-miterlimit="10" stroke-dasharray="" stroke-dashoffset="0" font-family="none" font-weight="none" font-size="none" text-anchor="none" style="mix-blend-mode: normal"><g transform="scale(8.53333,8.53333)"><path d="M6,4c-1.105,0 -2,0.895 -2,2v18c0,1.105 0.895,2 2,2h18c1.105,0 2,-0.895 2,-2v-18c0,-1.105 -0.895,-2 -2,-2zM9.38086,6.22266h1.14844l0.45898,2.15234c0.117,0.53 0.20377,0.98147 0.25977,1.35547h0.03516c0.039,-0.268 0.12477,-0.71666 0.25977,-1.34766l0.47656,-2.16016h1.14844l-1.33203,4.74805v2.27734h-1.14063v-2.27734zM14.49414,8.01563c0.38,0 0.68311,0.07737 0.91211,0.23438c0.229,0.156 0.39595,0.40142 0.50195,0.73242c0.106,0.332 0.16016,0.77417 0.16016,1.32617v0.74609c0,0.548 -0.05325,0.98636 -0.15625,1.31836c-0.103,0.332 -0.27095,0.57647 -0.50195,0.73047c-0.231,0.154 -0.54541,0.22851 -0.94141,0.22851c-0.407,0 -0.72698,-0.07737 -0.95898,-0.23437c-0.232,-0.156 -0.39614,-0.39852 -0.49414,-0.72851c-0.098,-0.33 -0.14648,-0.76745 -0.14648,-1.31445v-0.74609c0,-0.553 0.05501,-0.99603 0.16601,-1.33203c0.112,-0.333 0.28839,-0.57942 0.52539,-0.73242c0.237,-0.154 0.54759,-0.22852 0.93359,-0.22852zM16.66992,8.11523h1.1543v3.76953c0,0.229 0.02517,0.39223 0.07617,0.49023c0.051,0.098 0.13395,0.14648 0.25195,0.14648c0.1,0 0.19606,-0.0298 0.28906,-0.0918c0.092,-0.061 0.16108,-0.13938 0.20508,-0.23438v-4.08008h1.15625v5.13477h-0.90625l-0.09961,-0.62891h-0.02539c-0.245,0.475 -0.61252,0.71289 -1.10352,0.71289c-0.34,0 -0.59386,-0.11294 -0.75586,-0.33594c-0.162,-0.223 -0.24219,-0.57188 -0.24219,-1.04687zM14.46875,8.8125c-0.156,0 -0.26608,0.08391 -0.33008,0.25391c-0.064,0.171 -0.0957,0.44059 -0.0957,0.80859v1.59961c0,0.38 0.0298,0.65331 0.0918,0.82031c0.062,0.167 0.17394,0.25195 0.33594,0.25195c0.161,-0.001 0.27389,-0.08395 0.33789,-0.25195c0.064,-0.167 0.0957,-0.44131 0.0957,-0.82031v-1.59961c0,-0.369 -0.0317,-0.63859 -0.0957,-0.80859c-0.064,-0.171 -0.17784,-0.25391 -0.33984,-0.25391zM8.77734,14.22266h12.44531c0.978,0 1.77734,0.79934 1.77734,1.77734v6.22266c0,0.978 -0.79934,1.77734 -1.77734,1.77734h-12.44531c-0.978,0 -1.77734,-0.79934 -1.77734,-1.77734v-6.22266c0,-0.978 0.79934,-1.77734 1.77734,-1.77734zM15.04492,16v6.15039h0.80469l0.09961,-0.41016h0.02148c0.076,0.147 0.18784,0.26266 0.33984,0.34766c0.151,0.084 0.31795,0.12695 0.50195,0.12695c0.33,0 0.57056,-0.15108 0.72656,-0.45508c0.156,-0.304 0.23438,-0.77978 0.23438,-1.42578v-0.68555h-0.00195c0,-0.485 -0.02889,-0.86467 -0.08789,-1.13867c-0.059,-0.273 -0.15416,-0.47075 -0.28516,-0.59375c-0.131,-0.123 -0.31392,-0.18359 -0.54492,-0.18359c-0.18,0 -0.34695,0.05134 -0.50195,0.15234c-0.156,0.101 -0.27633,0.23344 -0.36133,0.39844h-0.00586v-2.2832zM9.21094,16.2207v0.7832h0.96875v5.14648h0.95312v-5.14648h0.96875v-0.7832zM19.5293,17.73438c-0.485,0 -0.82734,0.14922 -1.02734,0.44922c-0.2,0.3 -0.30078,0.77478 -0.30078,1.42578v0.75586c0,0.632 0.09702,1.09939 0.29102,1.40039c0.194,0.301 0.53072,0.45313 1.01172,0.45313c0.401,0 0.70969,-0.09887 0.92969,-0.29687c0.22,-0.197 0.33008,-0.49744 0.33008,-0.89844c0,-0.066 -0.00381,-0.11825 -0.00781,-0.15625l-0.8418,-0.05078c-0.004,0.264 -0.03389,0.45341 -0.08789,0.56641c-0.054,0.113 -0.15578,0.16992 -0.30078,0.16992c-0.108,0 -0.18823,-0.0317 -0.24023,-0.0957c-0.052,-0.063 -0.08456,-0.16569 -0.10156,-0.30469c-0.017,-0.139 -0.02539,-0.347 -0.02539,-0.625v-0.2207h1.63086v-0.74023c0,-0.457 -0.03637,-0.81617 -0.10937,-1.07617c-0.074,-0.259 -0.19991,-0.44831 -0.37891,-0.57031c-0.18,-0.123 -0.43648,-0.18555 -0.77148,-0.18555zM11.81055,17.81641v3.23828c0,0.4 0.06808,0.69577 0.20508,0.88477c0.137,0.188 0.34677,0.2832 0.63477,0.2832c0.415,0 0.72755,-0.20152 0.93555,-0.60352h0.01953l0.08398,0.53125h0.76367h0.00195v-4.33398h-0.97461v3.44336c-0.038,0.08 -0.09583,0.14626 -0.17383,0.19727c-0.077,0.052 -0.15914,0.07813 -0.24414,0.07813c-0.1,0 -0.16894,-0.04005 -0.21094,-0.12305c-0.043,-0.082 -0.06445,-0.22106 -0.06445,-0.41406v-3.18164zM19.50977,18.39453c0.104,0 0.18047,0.02889 0.23047,0.08789c0.05,0.059 0.08456,0.15873 0.10156,0.30273c0.019,0.144 0.02734,0.35677 0.02734,0.63477v0.31055h-0.71289v-0.31055c0,-0.283 0.00839,-0.49577 0.02539,-0.63477c0.016,-0.139 0.04766,-0.23783 0.09766,-0.29883c0.05,-0.06 0.12647,-0.0918 0.23047,-0.0918zM16.41406,18.42578c0.1,0 0.17647,0.03824 0.23047,0.11523c0.053,0.077 0.09228,0.20858 0.11328,0.39258c0.021,0.184 0.03125,0.44516 0.03125,0.78516v0.55859c0,0.316 -0.01111,0.56419 -0.03711,0.74219c-0.026,0.18 -0.07081,0.30781 -0.13281,0.38281c-0.062,0.075 -0.14209,0.11328 -0.24609,0.11328c-0.081,0 -0.15466,-0.02159 -0.22266,-0.05859c-0.068,-0.038 -0.12402,-0.09392 -0.16602,-0.16992v-2.45898c0.033,-0.117 0.08992,-0.21502 0.16992,-0.29102c0.08,-0.076 0.16577,-0.11133 0.25977,-0.11133z"></path></g></g></svg>